<?xml version="1.0" encoding="UTF-8"?>
<svg version="1.1" xmlns="http://www.w3.org/2000/svg" width="1920" height="1920">
<path d="M0 0 C633.6 0 1267.2 0 1920 0 C1920 633.6 1920 1267.2 1920 1920 C1286.4 1920 652.8 1920 0 1920 C0 1286.4 0 652.8 0 0 Z " fill="#FEFEFE" transform="translate(0,0)"/>
<path d="M0 0 C0.78930908 0.01160156 1.57861816 0.02320313 2.3918457 0.03515625 C24.17160441 0.63947068 40.30408237 12.93375373 54.875 28 C70.37876752 45.0507751 80.24526372 67.05164883 88.25 88.375 C88.4862207 88.99101074 88.72244141 89.60702148 88.96582031 90.24169922 C101.66769213 123.50972092 106.23219159 159.15987707 108.40112305 194.49975586 C108.45344086 195.34689148 108.50575867 196.1940271 108.55966187 197.0668335 C108.65558981 198.65829584 108.74676071 200.25005441 108.83242798 201.84210205 C108.99681065 205.73668013 108.99681065 205.73668013 110.25 209.375 C110.416868 211.98278042 110.52360651 214.56635535 110.58618164 217.17724609 C110.60847525 217.99862186 110.63076885 218.81999763 110.65373802 219.66626358 C110.7253728 222.45186599 110.78735837 225.23756755 110.84765625 228.0234375 C110.87026079 229.00109447 110.89286533 229.97875145 110.91615486 230.98603439 C111.29017801 247.75587364 111.19959774 264.50388238 110.98112106 281.27524567 C110.93119896 285.30441284 110.89783433 289.33360484 110.86953735 293.36297607 C110.86480073 294.0334778 110.86006411 294.70397952 110.85518396 295.39479947 C110.83172448 298.79920711 110.81040447 302.20362108 110.79051781 305.6080513 C110.74692098 312.56211084 110.66744168 319.51313991 110.51977539 326.46582031 C110.37416052 333.33321825 110.32334299 340.1962864 110.32896614 347.06519699 C110.31552087 349.64660128 110.27058736 352.2280579 110.19222832 354.80830765 C109.2919029 367.84719204 109.2919029 367.84719204 113.97526932 379.47338104 C118.19097947 383.02757187 122.83797918 385.25872773 127.91189003 387.33154583 C131.75247101 389.04552434 135.15656759 391.39070956 138.625 393.75 C139.79192383 394.5068811 139.79192383 394.5068811 140.98242188 395.27905273 C141.9037793 395.88148804 141.9037793 395.88148804 142.84375 396.49609375 C143.55789063 396.96257324 144.27203125 397.42905273 145.0078125 397.90966797 C145.74773438 398.39322754 146.48765625 398.87678711 147.25 399.375 C150.54051659 401.52260151 153.83222286 403.66836605 157.125 405.8125 C157.96184326 406.35745117 158.79868652 406.90240234 159.66088867 407.46386719 C166.17579428 411.69727128 172.73540237 415.85618744 179.31152344 419.99365234 C188.03927999 425.48978012 196.68615255 431.10880674 205.33398438 436.72949219 C213.37786702 441.95538227 221.44327548 447.14179018 229.5625 452.25 C236.93718545 456.89025996 244.25440027 461.61251919 251.55126953 466.37402344 C257.81968363 470.45900273 264.12076185 474.49020641 270.4375 478.5 C277.50223812 482.98461547 284.54832859 487.49515484 291.56713867 492.05126953 C297.94394205 496.1865617 304.34628021 500.28154638 310.75 504.375 C318.42073846 509.27874662 326.08122846 514.19704703 333.71875 519.15234375 C340.04576857 523.25273848 346.39763166 527.31402167 352.75 531.375 C359.76153652 535.85737513 366.76871201 540.3456386 373.75 544.875 C384.88218766 552.09532378 396.07039783 559.2284194 407.25 566.375 C431.68023121 581.99206882 431.68023121 581.99206882 442.93164062 589.29418945 C448.68326571 593.0211924 454.464877 596.70026373 460.25 600.375 C470.29478307 606.75605605 480.29233577 613.20693704 490.27246094 619.68847656 C499.84356919 625.90210811 509.45003812 632.05712675 519.08325195 638.17407227 C524.78265121 641.79590207 530.46293548 645.44511903 536.125 649.125 C541.34132801 652.51469806 546.58786502 655.84693609 551.875 659.125 C559.36624535 663.77486754 566.7443526 668.59115294 574.12084961 673.42041016 C581.36490472 678.15825063 588.64175002 682.84220744 595.9375 687.5 C603.72565115 692.47360036 611.50212356 697.46384364 619.25 702.5 C620.03205811 703.00805176 620.81411621 703.51610352 621.61987305 704.03955078 C623.09445818 704.99961953 624.56758595 705.96193136 626.0390625 706.92675781 C627.61337692 707.95798939 629.19197659 708.98269156 630.7734375 710.00292969 C631.59070312 710.53563477 632.40796875 711.06833984 633.25 711.6171875 C633.9925 712.09784668 634.735 712.57850586 635.5 713.07373047 C637.25 714.375 637.25 714.375 638.25 716.375 C638.36887358 718.87547033 638.42830167 721.34898469 638.44287109 723.85058594 C638.45104858 724.62152588 638.45922607 725.39246582 638.46765137 726.18676758 C638.49251225 728.74429546 638.50902425 731.30176776 638.5234375 733.859375 C638.53142302 735.1692979 638.53142302 735.1692979 638.53956985 736.5056839 C638.56630612 741.12910586 638.58567834 745.75250079 638.60009766 750.37597656 C638.61673504 755.14887606 638.66150343 759.92108366 638.7124691 764.69372177 C638.74614842 768.3655068 638.75767588 772.03712786 638.76332474 775.70905304 C638.77003674 777.46811452 638.78525759 779.22716523 638.80921555 780.98607635 C638.84088231 783.45190013 638.84090219 785.9158617 638.83349609 788.38183594 C638.84990143 789.10518127 638.86630676 789.82852661 638.88320923 790.5737915 C638.83623777 794.40497953 638.23554301 796.86952388 635.90176392 799.83868408 C633.25 802.375 633.25 802.375 630.23828125 802.94921875 C624.5329335 802.42439448 618.94646059 800.68197447 613.4375 799.1875 C612.22843994 798.86652344 611.01937988 798.54554688 609.77368164 798.21484375 C601.81136931 796.09283367 593.86641961 793.9091393 585.93359375 791.6796875 C576.83018203 789.12985708 567.68923758 786.71465224 558.55859375 784.26464844 C555.46510078 783.43283849 552.37290639 782.59641916 549.28125 781.7578125 C539.20263046 779.02751719 529.11592906 776.33313 519.01171875 773.69921875 C518.11077988 773.4643425 517.209841 773.22946625 516.28160095 772.98747253 C514.43249841 772.50548053 512.58339254 772.02350128 510.73428345 771.54153442 C509.81134491 771.30095306 508.88840637 771.0603717 507.9375 770.8125 C507.01415863 770.57183807 506.09081726 770.33117615 505.13949585 770.08322144 C494.64323048 767.34486956 484.16938033 764.56823514 473.76049805 761.51147461 C465.45811339 759.09533569 457.0761517 756.98912828 448.69888306 754.85165405 C440.84805956 752.84668608 433.02416138 750.78780839 425.25 748.5 C415.16870256 745.54157289 404.99263025 742.96684585 394.8125 740.375 C378.88338835 736.31786689 363.00652799 732.12321063 347.18359375 727.66796875 C345.05993233 727.07018284 342.93623403 726.47252791 340.8125 725.875 C339.76553955 725.58028809 338.7185791 725.28557617 337.63989258 724.98193359 C329.69019484 722.75417304 321.71440665 720.64308092 313.72094727 718.57861328 C306.20277408 716.63429174 298.70763553 714.61295509 291.2199707 712.55444336 C283.57421033 710.4536317 275.91344364 708.4101508 268.25 706.375 C267.58943604 706.19954651 266.92887207 706.02409302 266.24829102 705.84332275 C261.416058 704.5602098 256.58313414 703.27971389 251.75 702 C251.01354248 701.80490845 250.27708496 701.60981689 249.51831055 701.40881348 C240.26787778 698.95870155 231.0130114 696.52720177 221.75 694.125 C214.67136283 692.28725908 207.61598517 690.38348439 200.57495117 688.40698242 C193.25301108 686.35921901 185.90888267 684.3954687 178.5625 682.4375 C177.91482666 682.26480591 177.26715332 682.09211182 176.59985352 681.91418457 C168.13762632 679.65931126 159.66638653 677.44135361 151.1875 675.25 C143.18557398 673.18116174 135.22654959 670.99268582 127.30249023 668.64208984 C118.02968624 665.92843246 108.62895014 663.68775266 99.25 661.375 C99.23160568 662.10033432 99.21321136 662.82566864 99.19425964 663.57298279 C98.37923501 695.46122824 97.51574437 727.33519826 95.75 759.1875 C95.68501312 760.36388031 95.62002625 761.54026062 95.55307007 762.75228882 C95.2958672 767.39944348 95.03787887 772.04655348 94.77851868 776.69358826 C94.19740472 787.16779669 93.69472452 797.64415555 93.25 808.125 C93.19369919 809.44902832 93.19369919 809.44902832 93.13626099 810.79980469 C92.52376017 825.38623497 92.00945444 839.97622603 91.49609375 854.56640625 C91.46290668 855.50919056 91.42971962 856.45197487 91.39552689 857.4233284 C91.05843108 867.00957078 90.72390652 876.59589336 90.39742947 886.1825037 C90.27345144 889.8162878 90.14807466 893.450023 90.02253914 897.08375359 C89.96446706 898.77607775 89.90707727 900.4684255 89.85046196 902.16079903 C89.53720693 911.52276659 89.13377512 920.87161453 88.59230709 930.22328568 C88.28784745 935.52549509 88.07026098 940.8193475 87.96875 946.12890625 C87.93103242 947.7610687 87.89327082 949.39323013 87.85546875 951.02539062 C87.80167701 953.5000575 87.74922531 955.97474667 87.69775391 958.44946289 C87.64559078 960.90519774 87.58861685 963.36078825 87.53125 965.81640625 C87.51767456 966.54469131 87.50409912 967.27297638 87.4901123 968.02333069 C87.38399371 972.47951272 87.00922525 976.84426615 86.4828186 981.26982117 C86.16669642 984.12824282 86.03581409 986.97815994 85.93359375 989.8515625 C85.89105469 991.01018799 85.84851562 992.16881348 85.8046875 993.36254883 C85.64651498 998.27215791 85.50182954 1003.18209905 85.36279297 1008.09228516 C85.26865234 1010.83214437 85.12537566 1013.55811355 84.94140625 1016.29296875 C84.45825064 1022.68974549 84.45825064 1022.68974549 86.56640625 1028.5390625 C88.25552036 1030.34176137 88.25552036 1030.34176137 90.1875 1031.72387695 C92.24080833 1033.36764166 93.80986381 1035.05371034 95.49609375 1037.06640625 C99.20977367 1041.39021544 103.18286205 1045.38577657 107.25 1049.375 C111.90919421 1053.94493762 116.36916017 1058.58569446 120.62890625 1063.53125 C122.89246261 1066.10570447 125.29702227 1068.4797394 127.75 1070.875 C131.47120001 1074.54065971 134.98684504 1078.30668361 138.375 1082.28125 C141.18600311 1085.42020347 144.20267797 1088.34850681 147.20092773 1091.30639648 C150.45000607 1094.52866448 153.47443863 1097.86840645 156.44140625 1101.34765625 C158.61958492 1103.78928634 160.92248008 1106.07548032 163.25 1108.375 C166.09863007 1111.18956574 168.85529312 1114.00235252 171.4375 1117.0625 C175.59923823 1121.9393818 180.21509485 1126.36464302 184.7668457 1130.87231445 C188.559849 1134.64263628 192.19711979 1138.46620345 195.6484375 1142.5546875 C198.3067306 1145.57606453 201.21453619 1148.34672362 204.078125 1151.171875 C205.97766635 1153.09874788 207.75022944 1155.06338914 209.5 1157.125 C212.73338904 1160.90232365 216.21699911 1164.38183001 219.75 1167.875 C223.86306995 1171.94169937 227.81753718 1176.0487093 231.55859375 1180.46484375 C234.32928133 1183.59386506 237.33695216 1186.48193282 240.33203125 1189.39453125 C243.23044638 1192.38739575 244.49703956 1194.36089166 244.54052734 1198.47583008 C244.5596669 1199.70774834 244.5596669 1199.70774834 244.57919312 1200.96455383 C244.58253159 1202.29114265 244.58253159 1202.29114265 244.5859375 1203.64453125 C244.5925943 1204.55829025 244.5992511 1205.47204926 244.60610962 1206.41349792 C244.61623643 1208.34766629 244.62092663 1210.2818696 244.62060547 1212.21606445 C244.62496838 1215.16611881 244.66125874 1218.11466454 244.69921875 1221.06445312 C244.70508906 1222.9453074 244.70905702 1224.82616876 244.7109375 1226.70703125 C244.72530853 1227.5853511 244.73967957 1228.46367096 244.75448608 1229.36860657 C244.71283515 1234.99178959 243.92987132 1238.05953013 240.25 1242.375 C238.02140086 1243.48929957 236.66443828 1243.60449854 234.1875 1243.6875 C233.47464844 1243.72488281 232.76179688 1243.76226563 232.02734375 1243.80078125 C227.74974323 1243.14500283 224.14798298 1241.20059132 220.25 1239.375 C218.2652597 1238.49622802 216.27814119 1237.62281375 214.2890625 1236.75390625 C213.23976563 1236.29306641 212.19046875 1235.83222656 211.109375 1235.35742188 C208.96111284 1234.41431403 206.81267658 1233.47160268 204.6640625 1232.52929688 C199.80376287 1230.39398141 194.95121879 1228.24651616 190.125 1226.03515625 C182.00663648 1222.33110722 173.80862152 1218.80674399 165.625 1215.25 C162.13644151 1213.73240737 158.64821636 1212.21405021 155.16015625 1210.6953125 C153.87690712 1210.13662476 153.87690712 1210.13662476 152.56773376 1209.56665039 C144.43821777 1206.02525148 136.32132198 1202.45554257 128.21435547 1198.86279297 C123.55874074 1196.80534699 118.8874891 1194.80029828 114.18359375 1192.85546875 C108.89888619 1190.6645692 103.69334081 1188.33540289 98.5 1185.9375 C87.5513709 1180.91901269 76.52265556 1176.0910609 65.47949219 1171.28540039 C58.03991607 1168.04603135 50.62291126 1164.76416859 43.25 1161.375 C43.1687085 1162.23383789 43.08741699 1163.09267578 43.00366211 1163.97753906 C40.67551569 1186.6944952 31.20130087 1209.11435871 14 1224.375 C8.35186326 1228.48273581 3.14669572 1229.36930889 -3.75 1228.375 C-17.28677878 1223.21096958 -25.61803362 1208.17691749 -31.5 1195.875 C-35.74813271 1186.01990426 -38.29658809 1175.98873171 -39.75 1165.375 C-47.27239935 1168.11703589 -54.44397793 1171.15024066 -61.5559082 1174.82470703 C-64.59145044 1176.29804596 -67.61417163 1177.51798286 -70.77734375 1178.6875 C-77.74341694 1181.32881511 -84.52434898 1184.30963438 -91.3125 1187.375 C-104.08316356 1193.12216327 -104.08316356 1193.12216327 -110.515625 1195.76953125 C-117.59490227 1198.69419943 -124.56896402 1201.84440146 -131.55245972 1204.98898315 C-148.13017791 1212.45068511 -164.74875019 1219.81773122 -181.40869141 1227.09399414 C-183.09277703 1227.82958161 -184.77685914 1228.56517715 -186.4609375 1229.30078125 C-187.26886749 1229.6535463 -188.07679749 1230.00631134 -188.90921021 1230.36976624 C-193.67712722 1232.45548104 -198.42657758 1234.57652742 -203.1640625 1236.73046875 C-204.7584314 1237.44795288 -204.7584314 1237.44795288 -206.38500977 1238.17993164 C-208.24776903 1239.01988989 -210.10566985 1239.87077084 -211.95678711 1240.73608398 C-217.15800877 1243.06433974 -221.03797716 1243.99587205 -226.75 1243.375 C-229.44105198 1241.19925584 -231.20532928 1239.46434144 -232.75 1236.375 C-232.8859514 1233.38294411 -232.96279625 1230.41538129 -232.98828125 1227.421875 C-232.996353 1226.52889709 -233.00442474 1225.63591919 -233.01274109 1224.71588135 C-233.0265857 1222.82281437 -233.03730616 1220.92972238 -233.04516602 1219.03662109 C-233.0623498 1216.1502299 -233.10622842 1213.26499278 -233.15039062 1210.37890625 C-233.1605202 1208.53907092 -233.16903547 1206.69922585 -233.17578125 1204.859375 C-233.19328934 1203.99979187 -233.21079742 1203.14020874 -233.22883606 1202.25457764 C-233.20581852 1195.85071102 -231.48429059 1192.48513062 -227.21362305 1187.62744141 C-226.73449463 1187.16515137 -226.25536621 1186.70286133 -225.76171875 1186.2265625 C-225.22409912 1185.70054443 -224.68647949 1185.17452637 -224.13256836 1184.63256836 C-223.5731958 1184.0938208 -223.01382324 1183.55507324 -222.4375 1183 C-217.1458128 1177.81433738 -217.1458128 1177.81433738 -212.1875 1172.3125 C-208.73635611 1168.24169935 -204.94780013 1164.54589927 -201.15429688 1160.79882812 C-197.7992277 1157.46901668 -194.65266971 1154.0355969 -191.58984375 1150.43359375 C-188.79164208 1147.30269719 -185.78226344 1144.38670305 -182.79443359 1141.43896484 C-180.18879261 1138.85477682 -177.68946891 1136.23290842 -175.3125 1133.4375 C-171.81289503 1129.33073465 -167.99017991 1125.58775194 -164.15478516 1121.79931641 C-160.80608173 1118.47581489 -157.66320016 1115.05119623 -154.609375 1111.453125 C-151.28085741 1107.73301711 -147.67303249 1104.28180005 -144.10546875 1100.79296875 C-141.64275734 1098.4126692 -141.64275734 1098.4126692 -139.75 1095.375 C-139.09 1095.375 -138.43 1095.375 -137.75 1095.375 C-137.49114014 1094.78944336 -137.23228027 1094.20388672 -136.96557617 1093.60058594 C-135.65778276 1091.2061604 -134.25263899 1089.66406671 -132.30078125 1087.765625 C-131.61693359 1087.09273437 -130.93308594 1086.41984375 -130.22851562 1085.7265625 C-129.51373047 1085.03304688 -128.79894531 1084.33953125 -128.0625 1083.625 C-123.27942725 1078.96161489 -118.68554723 1074.24465819 -114.32885742 1069.17871094 C-112.24341821 1066.79627319 -110.0178862 1064.58320499 -107.75 1062.375 C-104.2808145 1058.94742392 -101.00798196 1055.47342906 -97.91259766 1051.70703125 C-96.18342782 1049.8423857 -94.53347817 1048.33342603 -92.5769043 1046.73754883 C-86.97421819 1042.00751988 -82.16813997 1037.82670298 -81.48632812 1030.20091248 C-81.41457715 1026.40539811 -81.61340738 1022.66014006 -81.875 1018.875 C-81.93844729 1017.24794687 -81.99573762 1015.62064291 -82.04711914 1013.99316406 C-82.1612837 1010.70293281 -82.3123033 1007.41784394 -82.49755859 1004.13085938 C-82.74442672 999.69733686 -82.88627761 995.26706959 -82.98828125 990.828125 C-83.19523968 978.46409766 -83.19523968 978.46409766 -84.2578125 966.15625 C-85.04597445 959.66619461 -85.01029416 953.11158255 -85.13815308 946.58215332 C-85.39164845 933.95974553 -85.79451816 921.36347219 -86.55807495 908.76156616 C-87.53340026 892.66076437 -88.0715248 876.5640548 -88.51202393 860.44021606 C-89.28951777 832.0053353 -90.44061053 803.59998375 -91.8125 775.1875 C-91.85671837 774.26758648 -91.90093674 773.34767296 -91.94649506 772.39988327 C-92.24304349 766.23124142 -92.54378536 760.06281649 -92.84765625 753.89453125 C-92.88617392 753.10709408 -92.92469158 752.31965691 -92.96437645 751.508358 C-93.34281622 743.80178516 -93.75551783 736.10175375 -94.28662109 728.40405273 C-94.6752471 722.73137231 -94.9448769 717.07478587 -95.06640625 711.390625 C-95.08718735 710.52467712 -95.10796844 709.65872925 -95.12937927 708.76654053 C-95.17203231 706.95865409 -95.21313445 705.1507304 -95.25268555 703.34277344 C-95.31211562 700.64246475 -95.37735231 697.94234256 -95.44335938 695.2421875 C-95.71655795 683.61796499 -95.80245721 672.00218166 -95.75 660.375 C-96.50120117 660.62032471 -97.25240234 660.86564941 -98.02636719 661.1184082 C-105.44368041 663.51926138 -112.9311111 665.45574488 -120.5 667.3125 C-128.3494939 669.23982838 -136.12863318 671.28923643 -143.86791992 673.61865234 C-153.35654947 676.4741285 -162.94365151 678.93728631 -172.5625 681.3125 C-178.00753259 682.65738113 -183.41544631 684.09941948 -188.8125 685.625 C-196.51817707 687.80194016 -204.26469738 689.80770645 -212.02209473 691.79086304 C-221.40130731 694.18869254 -230.76798765 696.60025615 -240.0625 699.3125 C-253.40149627 703.20047624 -266.85390653 706.67010209 -280.29052734 710.20166016 C-284.62844792 711.3422733 -288.96488671 712.48843047 -293.30078125 713.63671875 C-293.99941284 713.8217395 -294.69804443 714.00676025 -295.41784668 714.1973877 C-297.52859127 714.75649063 -299.63930237 715.31571982 -301.75 715.875 C-309.65142232 717.96867219 -317.55299871 720.06164416 -325.45860291 722.13948059 C-345.67953761 727.44702787 -345.67953761 727.44702787 -365.79785156 733.12866211 C-371.09934343 734.6640057 -376.42636511 736.08182667 -381.7734375 737.44921875 C-382.4767067 737.62916885 -383.17997589 737.80911896 -383.90455627 737.99452209 C-387.41642845 738.89110477 -390.93004409 739.78015214 -394.44604492 740.66040039 C-395.72326416 740.98387451 -397.0004834 741.30734863 -398.31640625 741.640625 C-400.03259155 742.07036621 -400.03259155 742.07036621 -401.78344727 742.50878906 C-404.34060607 743.25546007 -406.39818183 744.16759335 -408.75 745.375 C-410.13212895 745.75878505 -411.52888479 746.09235744 -412.93359375 746.3828125 C-414.17774048 746.64928589 -414.17774048 746.64928589 -415.44702148 746.92114258 C-416.35137939 747.11216553 -417.2557373 747.30318848 -418.1875 747.5 C-428.34569717 749.72574403 -438.33790207 752.40617441 -448.34863281 755.21459961 C-457.51742571 757.77929273 -466.71349786 760.20549371 -475.9375 762.5625 C-484.85132709 764.84234105 -493.74756764 767.15965578 -502.60351562 769.65527344 C-512.80255515 772.52708276 -523.06417542 775.16839581 -533.32421875 777.8125 C-542.33448392 780.13977606 -551.31873061 782.5097916 -560.25 785.125 C-572.3496584 788.66202787 -584.58312921 791.69781709 -596.80664062 794.77246094 C-598.43374371 795.18365183 -600.06069983 795.59542478 -601.6875 796.0078125 C-602.47282104 796.20652954 -603.25814209 796.40524658 -604.06726074 796.60998535 C-609.78898372 798.07804512 -615.39223576 799.77459626 -620.98828125 801.67138672 C-624.0659648 802.45549952 -626.5868848 802.66031562 -629.75 802.375 C-632.32285724 800.202365 -634.23996919 798.39506162 -635.75 795.375 C-635.85833897 792.96040882 -635.9073029 790.57421572 -635.91113281 788.15893555 C-635.91609772 787.41565002 -635.92106262 786.6723645 -635.92617798 785.90655518 C-635.94081169 783.44160036 -635.94760406 780.97670992 -635.953125 778.51171875 C-635.95887605 776.80019631 -635.96463379 775.08867389 -635.97039795 773.37715149 C-635.98091178 769.78504129 -635.98675175 766.1929535 -635.99023438 762.60083008 C-635.99571585 758.00065444 -636.01973473 753.40077528 -636.04820633 748.80069256 C-636.06684302 745.26362752 -636.07203889 741.72663369 -636.07357025 738.1895237 C-636.07659566 736.49386794 -636.08462046 734.7982134 -636.09775543 733.10260582 C-636.11483558 730.72792498 -636.11293099 728.35396562 -636.10644531 725.97924805 C-636.12026749 724.93091545 -636.12026749 724.93091545 -636.1343689 723.86140442 C-636.09728846 719.52111531 -635.36577465 716.84655599 -632.75 713.375 C-630.64086914 711.59277344 -630.64086914 711.59277344 -628.22265625 709.984375 C-627.33336426 709.38818359 -626.44407227 708.79199219 -625.52783203 708.17773438 C-624.61114746 707.58283203 -623.69446289 706.98792969 -622.75 706.375 C-621.46198486 705.53678711 -621.46198486 705.53678711 -620.14794922 704.68164062 C-617.50402795 702.98051685 -614.84793823 701.30016132 -612.1875 699.625 C-610.23794591 698.3911547 -608.28873026 697.15677449 -606.33984375 695.921875 C-604.91260986 695.01791992 -604.91260986 695.01791992 -603.45654297 694.09570312 C-599.70623951 691.71142216 -595.97617969 689.29674561 -592.25 686.875 C-585.83741235 682.71036175 -579.39314709 678.59754267 -572.9375 674.5 C-565.84790653 669.99913775 -558.7834776 665.46305394 -551.75 660.875 C-543.049634 655.20110986 -534.29525765 649.6156437 -525.52734375 644.046875 C-511.83040684 635.34667473 -498.15549118 626.61186414 -484.5625 617.75 C-475.92810797 612.12116866 -467.23981664 606.58022344 -458.5390625 601.0546875 C-444.74805866 592.29496022 -430.98603439 583.48909592 -417.2800293 574.59692383 C-409.86635591 569.79207886 -402.41899379 565.03994839 -394.9753418 560.28173828 C-388.99265914 556.45569387 -383.01907619 552.61654946 -377.0625 548.75 C-370.64875049 544.58735081 -364.2041482 540.4747041 -357.75 536.375 C-348.38378162 530.42500944 -339.05642474 524.41795672 -329.75 518.375 C-316.86884968 510.01483714 -303.94217202 501.72703518 -291.00390625 493.45556641 C-285.75147966 490.09713458 -280.50078492 486.73599771 -275.25 483.375 C-268.90715882 479.31498326 -262.56387093 475.25567196 -256.21875 471.19921875 C-243.70069505 463.19499398 -231.20237071 455.16205578 -218.74072266 447.0703125 C-209.16080289 440.85083998 -199.54505851 434.69075678 -189.90356445 428.56713867 C-184.33575634 425.02829808 -178.78312636 421.46780074 -173.25 417.875 C-166.77411222 413.67004011 -160.26780735 409.51466579 -153.75 405.375 C-142.91908888 398.5614845 -142.91908888 398.5614845 -132.23116016 391.5284605 C-128.67693036 389.14937239 -125.19736318 387.05709872 -121.28881836 385.3112793 C-115.79645604 382.68154385 -110.12866368 379.91544204 -107.81124878 373.96426392 C-106.33745678 366.67148733 -106.82883545 359.2640762 -107.125 351.875 C-107.15937021 349.4379217 -107.18590688 347.00072181 -107.20507812 344.56347656 C-107.2755411 338.13255595 -107.44667579 331.70824772 -107.64099121 325.2800293 C-107.81905813 318.90112578 -107.91227599 312.52121136 -108.0078125 306.140625 C-108.12395031 298.65605704 -108.24536401 291.171946 -108.40541077 283.68817139 C-108.72310986 268.47148784 -108.76216265 253.29352206 -108.37109375 238.078125 C-108.33842659 236.7760611 -108.33842659 236.7760611 -108.30509949 235.44769287 C-107.96138221 222.34018654 -107.23959699 209.29267999 -106.01171875 196.23535156 C-105.74234103 193.29129434 -105.50777056 190.34608434 -105.28125 187.3984375 C-100.4945983 126.1645658 -85.80559636 56.74843546 -37.75 14.375 C-31.27773475 9.36768481 -24.41887543 6.11305537 -16.75 3.375 C-16.16492676 3.12347168 -15.57985352 2.87194336 -14.97705078 2.61279297 C-9.87692481 0.49203563 -5.50121994 -0.10472847 0 0 Z " fill="#333333" transform="translate(958.75,337.625)"/>
<path d="M0 0 C0.33 0 0.66 0 1 0 C1.0580476 3.27075883 1.09361165 6.54138524 1.125 9.8125 C1.14175781 10.74126953 1.15851562 11.67003906 1.17578125 12.62695312 C1.18222656 13.51962891 1.18867187 14.41230469 1.1953125 15.33203125 C1.20578613 16.15421143 1.21625977 16.9763916 1.22705078 17.82348633 C1 20 1 20 -1 23 C-1.66 23 -2.32 23 -3 23 C-3 23.66 -3 24.32 -3 25 C-4.57421875 26.55078125 -4.57421875 26.55078125 -6.6875 28.3125 C-9.95300964 31.08499308 -13.01915985 33.92600859 -16 37 C-16.66 36.67 -17.32 36.34 -18 36 C-17.23538452 35.37677856 -17.23538452 35.37677856 -16.45532227 34.7409668 C-5.38703647 25.96516246 -5.38703647 25.96516246 0.3515625 13.640625 C0.7031588 9.04685949 0.48725194 4.57614966 0 0 Z " fill="#636363" transform="translate(877,1355)"/>
<path d="M0 0 C0.66 0.33 1.32 0.66 2 1 C-4.28571429 6.42857143 -4.28571429 6.42857143 -8 8 C-8 7.01 -8 6.02 -8 5 C-6.3203125 3.578125 -6.3203125 3.578125 -4.125 2.25 C-3.40570312 1.80140625 -2.68640625 1.3528125 -1.9453125 0.890625 C-1.30335938 0.59671875 -0.66140625 0.3028125 0 0 Z " fill="#4C4C4C" transform="translate(783,757)"/>
</svg>
